<!DOCTYPE svg PUBLIC "-//W3C//DTD SVG 20010904//EN" "http://www.w3.org/TR/2001/REC-SVG-20010904/DTD/svg10.dtd">
<svg version="1.0" xmlns="http://www.w3.org/2000/svg" width="214px" height="63px" viewBox="0 0 2140 630" preserveAspectRatio="xMidYMid meet">
<g id="layer101" fill="#576068" stroke="none">
 <path d="M1398 569 c-56 -9 -102 -38 -126 -82 -14 -27 -17 -66 -20 -235 l-4 -202 36 0 36 0 0 193 c0 174 2 195 20 225 32 52 101 68 161 36 51 -26 59 -61 59 -269 l0 -185 30 0 30 0 0 203 c0 178 -2 206 -19 237 -33 62 -111 92 -203 79z"/>
 <path d="M180 351 l0 -220 -62 25 c-34 13 -63 24 -65 24 -2 0 -3 -13 -3 -29 0 -27 5 -31 78 -59 42 -16 87 -32 100 -36 l22 -7 0 260 0 261 -35 0 -35 0 0 -219z"/>
 <path d="M514 551 c-57 -35 -69 -77 -69 -246 0 -126 3 -155 18 -183 26 -48 71 -72 138 -72 76 0 118 28 142 95 25 71 20 292 -7 349 -26 53 -68 76 -136 76 -36 0 -66 -6 -86 -19z m140 -53 c62 -55 62 -321 0 -375 -52 -47 -127 -15 -144 62 -13 55 -12 183 1 244 18 84 88 118 143 69z"/>
 <path d="M906 540 c-51 -45 -61 -85 -61 -235 0 -114 3 -135 22 -175 30 -60 65 -80 142 -80 53 0 64 4 95 30 48 43 60 86 61 220 0 141 -15 199 -62 240 -30 27 -41 30 -98 30 -57 0 -68 -3 -99 -30z m151 -35 c31 -22 43 -75 43 -195 0 -160 -22 -210 -93 -210 -76 0 -97 45 -97 210 0 165 20 209 95 210 17 0 40 -7 52 -15z"/>
 <path d="M1730 309 l0 -261 134 4 c146 3 164 10 210 71 28 38 33 122 8 167 -31 57 -72 74 -184 78 l-98 4 0 99 0 99 -35 0 -35 0 0 -261z m274 -25 c38 -39 37 -105 -3 -145 -28 -28 -34 -29 -115 -29 l-86 0 0 100 0 100 89 0 c82 0 90 -2 115 -26z"/>
 </g>

</svg>